<svg width="50" height="50" viewBox="0 0 50 50" fill="none" xmlns="http://www.w3.org/2000/svg">
<circle cx="25" cy="25" r="25" fill="#F5F5F5"/>
<path d="M39.0897 24.2232L36 25.7681L32 18.1078L35.1212 16.5472C35.3557 16.43 35.6268 16.4095 35.8763 16.4902C36.1257 16.5709 36.3335 16.7464 36.4548 16.9788L39.5289 22.8659C39.5904 22.9836 39.6278 23.1124 39.639 23.2447C39.6501 23.3771 39.6348 23.5103 39.5939 23.6367C39.553 23.763 39.4874 23.8799 39.4008 23.9807C39.3143 24.0814 39.2085 24.1638 39.0897 24.2232V24.2232Z" stroke="#7B4DF6" stroke-width="1.5" stroke-linecap="round" stroke-linejoin="round"/>
<path d="M14 25.634L10.9103 24.0892C10.7915 24.0298 10.6858 23.9473 10.5992 23.8466C10.5126 23.7459 10.447 23.629 10.4061 23.5026C10.3652 23.3763 10.3499 23.243 10.3611 23.1107C10.3722 22.9784 10.4096 22.8496 10.4711 22.7319L13.5452 16.8448C13.6666 16.6124 13.8743 16.4369 14.1238 16.3562C14.3732 16.2755 14.6444 16.2959 14.8789 16.4132L18 17.9738L14 25.634Z" stroke="#7B4DF6" stroke-width="1.5" stroke-linecap="round" stroke-linejoin="round"/>
<path d="M36 25.768L34 28.1078L29.4004 32.7074C29.2783 32.8295 29.1266 32.9179 28.9602 32.964C28.7938 33.0101 28.6182 33.0123 28.4507 32.9704L21.2061 31.1593C21.0702 31.1253 20.943 31.0632 20.8326 30.9769L14 25.634" stroke="#7B4DF6" stroke-width="1.5" stroke-linecap="round" stroke-linejoin="round"/>
<path d="M34.0001 28.1077L28.5001 24.1077L26.9001 25.3077C26.2077 25.827 25.3655 26.1077 24.5001 26.1077C23.6346 26.1077 22.7924 25.827 22.1001 25.3077L21.4225 24.7995C21.3078 24.7135 21.213 24.6039 21.1445 24.4781C21.0759 24.3523 21.0351 24.2133 21.025 24.0704C21.0148 23.9274 21.0355 23.784 21.0856 23.6498C21.1357 23.5156 21.214 23.3937 21.3154 23.2924L26.2072 18.4006C26.3 18.3077 26.4103 18.234 26.5316 18.1838C26.6529 18.1335 26.7829 18.1077 26.9143 18.1077H32.0001" stroke="#7B4DF6" stroke-width="1.5" stroke-linecap="round" stroke-linejoin="round"/>
<path d="M18.0718 17.9736L24.4868 16.1034C24.7159 16.0366 24.9614 16.054 25.1789 16.1524L29.5 18.1076" stroke="#7B4DF6" stroke-width="1.5" stroke-linecap="round" stroke-linejoin="round"/>
<path d="M23 35.6077L19.2326 34.6658C19.0797 34.6276 18.938 34.5538 18.8191 34.4504L16 32" stroke="#7B4DF6" stroke-width="1.5" stroke-linecap="round" stroke-linejoin="round"/>
</svg>
