<svg width="50" height="50" viewBox="0 0 50 50" fill="none" xmlns="http://www.w3.org/2000/svg">
<circle cx="25" cy="25" r="25" fill="#F5F5F5"/>
<path d="M35.258 19.6667C35.258 22.4957 34.2524 27.7305 32.3593 32.2529C31.4144 34.5102 30.2688 36.5397 28.9569 37.9924C27.644 39.4464 26.2348 40.25 24.744 40.25C23.5095 40.25 22.2166 39.4781 20.9239 38.0012C19.6451 36.54 18.4678 34.5005 17.4647 32.2385C15.4523 27.7 14.23 22.4732 14.23 19.6667C14.23 14.2278 18.8982 9.75 24.744 9.75C30.5897 9.75 35.258 14.2278 35.258 19.6667Z" stroke="#7B4DF6" stroke-width="1.5"/>
<path d="M25.7185 24.8022V22.3093C25.7185 22.1991 25.6757 22.0934 25.5995 22.0155C25.5233 21.9376 25.4199 21.8938 25.3122 21.8938H23.6872C23.5795 21.8938 23.4761 21.9376 23.3999 22.0155C23.3238 22.0934 23.281 22.1991 23.281 22.3093V24.8022C23.281 24.9124 23.2382 25.0181 23.162 25.096C23.0858 25.1739 22.9825 25.2177 22.8748 25.2177L20.4376 25.2181C20.3842 25.2181 20.3314 25.2073 20.2821 25.1864C20.2328 25.1656 20.188 25.135 20.1503 25.0964C20.1125 25.0578 20.0826 25.012 20.0622 24.9616C20.0418 24.9112 20.0312 24.8571 20.0313 24.8026V20.0006C20.0312 19.9427 20.0431 19.8855 20.066 19.8325C20.0889 19.7796 20.1223 19.7321 20.1642 19.6932L24.2264 15.9157C24.3012 15.8462 24.3986 15.8076 24.4997 15.8076C24.6008 15.8076 24.6982 15.8461 24.773 15.9157L28.8358 19.6932C28.8777 19.7321 28.9111 19.7796 28.934 19.8325C28.9569 19.8855 28.9688 19.9427 28.9688 20.0006V24.8026C28.9688 24.8571 28.9582 24.9112 28.9378 24.9616C28.9174 25.012 28.8875 25.0578 28.8497 25.0964C28.812 25.135 28.7672 25.1656 28.7179 25.1864C28.6686 25.2073 28.6158 25.2181 28.5624 25.2181L26.1247 25.2177C26.0169 25.2177 25.9136 25.1739 25.8374 25.096C25.7612 25.0181 25.7185 24.9124 25.7185 24.8022V24.8022Z" stroke="#7B4DF6" stroke-width="1.5" stroke-linecap="round" stroke-linejoin="round"/>
</svg>
