<svg width="50" height="50" viewBox="0 0 50 50" fill="none" xmlns="http://www.w3.org/2000/svg">
<circle cx="25" cy="25" r="25" fill="#F5F5F5"/>
<path d="M25 12V38" stroke="#7B4DF6" stroke-width="1.5" stroke-linecap="round" stroke-linejoin="round"/>
<path d="M32 20C32 19.3434 31.8707 18.6932 31.6194 18.0866C31.3681 17.48 30.9998 16.9288 30.5355 16.4645C30.0712 16.0002 29.52 15.6319 28.9134 15.3806C28.3068 15.1293 27.6566 15 27 15H22.5C21.1739 15 19.9021 15.5268 18.9645 16.4645C18.0268 17.4021 17.5 18.6739 17.5 20C17.5 21.3261 18.0268 22.5979 18.9645 23.5355C19.9021 24.4732 21.1739 25 22.5 25H28C29.3261 25 30.5979 25.5268 31.5355 26.4645C32.4732 27.4021 33 28.6739 33 30C33 31.3261 32.4732 32.5979 31.5355 33.5355C30.5979 34.4732 29.3261 35 28 35H22C20.6739 35 19.4021 34.4732 18.4645 33.5355C17.5268 32.5979 17 31.3261 17 30" stroke="#7B4DF6" stroke-width="1.5" stroke-linecap="round" stroke-linejoin="round"/>
</svg>
